<svg xmlns="http://www.w3.org/2000/svg" viewBox="0 0 500 500"><g id="freepik--background-simple--inject-79"><path d="M261.29,20.4C236.83,18,212.06,18,188.42,25.5c-43.58,13.77-65.74,50.68-79.15,91.87-.34,1-.67,2.08-1,3.12C92.33,170.43-1.17,199.11,10.51,276.68s68.76,65,75.44,120.06,87.34,83.93,165.76,78.63,75.43-69.06,120.06-97.75,127.5-41.44,108.38-142.38c-12.52-66.09-45-131.38-97.76-175.32C354.41,36.6,318.28,27.85,283,23,275.8,22,268.56,21.1,261.29,20.4Z" style="fill:#24D6E1"></path><path d="M261.29,20.4C236.83,18,212.06,18,188.42,25.5c-43.58,13.77-65.74,50.68-79.15,91.87-.34,1-.67,2.08-1,3.12C92.33,170.43-1.17,199.11,10.51,276.68s68.76,65,75.44,120.06,87.34,83.93,165.76,78.63,75.43-69.06,120.06-97.75,127.5-41.44,108.38-142.38c-12.52-66.09-45-131.38-97.76-175.32C354.41,36.6,318.28,27.85,283,23,275.8,22,268.56,21.1,261.29,20.4Z" style="fill:#fff;opacity:0.7000000000000001"></path></g><g id="freepik--Clouds--inject-79"><path d="M312,35.87c-.23-.7-.47-1.41-.72-2.11-9.4-26.14-53.13-27.94-53.13,4.18,0,6.19-14.85,0-20.41,8s.62,13-6.81,15.47-8-3.71-17.32-3.1-8,9.28-11.14,11.76-3.09,1.24-9.9,1.85-8,5.57-8,5.57H347.26s6.19-18.56-4.95-25.36-11.14,2.47-19.8-1.24C315.36,47.86,314,42,312,35.87Z" style="fill:none;stroke:#b2b2b2;stroke-linecap:round;stroke-linejoin:round"></path><path d="M317.64,70.76s3.37-10.41-4.9-18.07-16.85-3.37-19.3,0S291,62.49,287,63.1s-3.06-6.74-11.64-4.9-5.21,10.42-9.19,12.26-4-4.9-9.5-2.76-5.21,6.13-5.21,6.13" style="fill:none;stroke:#b2b2b2;stroke-linecap:round;stroke-linejoin:round"></path><path d="M273.63,50a15.52,15.52,0,0,0-15.69-1.37c-8.87,4.1-4.77,12.63-8.87,14.67s-6.14-.34-11.26,2S233,71.1,233,71.1" style="fill:none;stroke:#b2b2b2;stroke-linecap:round;stroke-linejoin:round"></path><path d="M409.31,96.54c-.14-.44-.29-.87-.45-1.31C403.05,79.06,376,78,376,97.82c0,3.82-9.18,0-12.63,5s.39,8-4.2,9.57-5-2.3-10.72-1.92-5,5.74-6.89,7.27-1.91.77-6.12,1.15-5,3.45-5,3.45H431.11s3.83-11.48-3.06-15.69-6.89,1.53-12.25-.77C411.38,104,410.55,100.35,409.31,96.54Z" style="fill:none;stroke:#b2b2b2;stroke-linecap:round;stroke-linejoin:round"></path><path d="M412.79,118.12s2.08-6.44-3-11.18-10.43-2.09-11.94,0-1.52,6.06-4,6.44-1.9-4.17-7.21-3-3.22,6.44-5.68,7.58-2.47-3-5.88-1.71-3.22,3.8-3.22,3.8" style="fill:none;stroke:#b2b2b2;stroke-linecap:round;stroke-linejoin:round"></path><path d="M385.57,105.24a9.61,9.61,0,0,0-9.71-.84c-5.49,2.53-2.95,7.81-5.49,9.07s-3.79-.21-7,1.27-3,3.59-3,3.59" style="fill:none;stroke:#b2b2b2;stroke-linecap:round;stroke-linejoin:round"></path><path d="M206.52,151.43c-.14-.43-.29-.87-.45-1.31-5.81-16.16-32.86-17.28-32.86,2.59,0,3.83-9.18,0-12.63,5s.39,8-4.21,9.57-5-2.29-10.71-1.91-5,5.74-6.89,7.27-1.91.76-6.12,1.15-5,3.44-5,3.44H228.32s3.82-11.48-3.06-15.69-6.89,1.53-12.25-.76C208.58,158.85,207.76,155.25,206.52,151.43Z" style="fill:none;stroke:#b2b2b2;stroke-linecap:round;stroke-linejoin:round"></path><path d="M210,173s2.08-6.44-3-11.18-10.43-2.08-11.95,0-1.51,6.07-4,6.45-1.89-4.17-7.2-3-3.22,6.45-5.68,7.59-2.47-3-5.88-1.71-3.22,3.79-3.22,3.79" style="fill:none;stroke:#b2b2b2;stroke-linecap:round;stroke-linejoin:round"></path><path d="M182.78,160.14a9.61,9.61,0,0,0-9.71-.85c-5.49,2.54-3,7.81-5.49,9.08s-3.8-.21-7,1.26-3,3.59-3,3.59" style="fill:none;stroke:#b2b2b2;stroke-linecap:round;stroke-linejoin:round"></path></g><g id="freepik--Buildings--inject-79"><path d="M461.23,248.26H442.5v16.59H426.44V252h-10.7v18.2h-15l-9.1-9.1h-19.8v24.08H329.58V259.65H285.22v6.43h-5.14s-2.89-2.09-2.89-3.69H254.73v18.48h-56.3l-9.32,9.32H147.64v27.33H306.31l-.19.32h176V269.13Z" style="fill:#263238"></path><path d="M393.26,284.11s55.66,2.14,32.64,24.42H401.28s21.89-12.68,8.67-17.24c-7.91-2.74-18.63-2.4-18.63-2.4" style="fill:#999;stroke:#263238;stroke-linecap:round;stroke-linejoin:round"></path><rect x="175.43" y="229" width="39.1" height="88.9" style="fill:#fff;stroke:#263238;stroke-linecap:round;stroke-linejoin:round"></rect><rect x="181.93" y="235.87" width="26.79" height="1.71" style="fill:#263238;stroke:#263238;stroke-linecap:round;stroke-linejoin:round"></rect><rect x="181.93" y="239.51" width="26.79" height="1.71" style="fill:#263238;stroke:#263238;stroke-linecap:round;stroke-linejoin:round"></rect><rect x="181.93" y="243.15" width="26.79" height="1.71" style="fill:#263238;stroke:#263238;stroke-linecap:round;stroke-linejoin:round"></rect><rect x="181.93" y="246.8" width="26.79" height="1.71" style="fill:#263238;stroke:#263238;stroke-linecap:round;stroke-linejoin:round"></rect><rect x="181.93" y="250.44" width="26.79" height="1.71" style="fill:#263238;stroke:#263238;stroke-linecap:round;stroke-linejoin:round"></rect><rect x="181.93" y="254.08" width="26.79" height="1.71" style="fill:#263238;stroke:#263238;stroke-linecap:round;stroke-linejoin:round"></rect><rect x="181.93" y="257.73" width="26.79" height="1.71" style="fill:#263238;stroke:#263238;stroke-linecap:round;stroke-linejoin:round"></rect><rect x="181.93" y="261.37" width="26.79" height="1.71" style="fill:#263238;stroke:#263238;stroke-linecap:round;stroke-linejoin:round"></rect><rect x="181.93" y="265.01" width="26.79" height="1.71" style="fill:#263238;stroke:#263238;stroke-linecap:round;stroke-linejoin:round"></rect><rect x="181.93" y="268.66" width="26.79" height="1.71" style="fill:#263238;stroke:#263238;stroke-linecap:round;stroke-linejoin:round"></rect><rect x="181.93" y="272.3" width="26.79" height="1.71" style="fill:#263238;stroke:#263238;stroke-linecap:round;stroke-linejoin:round"></rect><rect x="181.93" y="275.94" width="26.79" height="1.71" style="fill:#263238;stroke:#263238;stroke-linecap:round;stroke-linejoin:round"></rect><rect x="181.93" y="279.58" width="26.79" height="1.71" style="fill:#263238;stroke:#263238;stroke-linecap:round;stroke-linejoin:round"></rect><rect x="181.93" y="283.23" width="26.79" height="1.71" style="fill:#263238;stroke:#263238;stroke-linecap:round;stroke-linejoin:round"></rect><rect x="181.93" y="286.87" width="26.79" height="1.71" style="fill:#263238;stroke:#263238;stroke-linecap:round;stroke-linejoin:round"></rect><rect x="181.93" y="290.51" width="26.79" height="1.71" style="fill:#263238;stroke:#263238;stroke-linecap:round;stroke-linejoin:round"></rect><rect x="181.93" y="294.16" width="26.79" height="1.71" style="fill:#263238;stroke:#263238;stroke-linecap:round;stroke-linejoin:round"></rect><rect x="181.93" y="297.8" width="26.79" height="1.71" style="fill:#263238;stroke:#263238;stroke-linecap:round;stroke-linejoin:round"></rect><rect x="181.93" y="301.44" width="26.79" height="1.71" style="fill:#263238;stroke:#263238;stroke-linecap:round;stroke-linejoin:round"></rect><rect x="181.93" y="305.09" width="26.79" height="1.71" style="fill:#263238;stroke:#263238;stroke-linecap:round;stroke-linejoin:round"></rect><rect x="181.93" y="308.73" width="26.79" height="1.71" style="fill:#263238;stroke:#263238;stroke-linecap:round;stroke-linejoin:round"></rect><rect x="181.93" y="312.37" width="26.79" height="1.71" style="fill:#263238;stroke:#263238;stroke-linecap:round;stroke-linejoin:round"></rect><polygon points="175.43 229 179.96 229 194.78 259.87 194.78 317.9 175.43 317.9 175.43 229" style="fill:#fff;stroke:#263238;stroke-linecap:round;stroke-linejoin:round"></polygon><polygon points="210.17 229.03 199.71 259.87 199.71 317.9 214.53 317.9 214.53 229 210.17 229.03" style="fill:#fff;stroke:#263238;stroke-linecap:round;stroke-linejoin:round"></polygon><rect x="126.97" y="239.51" width="39.1" height="78.39" style="fill:#fff;stroke:#263238;stroke-linecap:round;stroke-linejoin:round"></rect><polygon points="126.97 239.51 131.49 239.51 141.17 248.73 141.17 317.9 126.97 317.9 126.97 239.51" style="fill:#fff;stroke:#263238;stroke-linecap:round;stroke-linejoin:round"></polygon><polygon points="161.71 239.54 151.25 249.16 151.25 302.94 155.32 317.9 166.07 317.9 166.07 239.51 161.71 239.54" style="fill:#fff;stroke:#263238;stroke-linecap:round;stroke-linejoin:round"></polygon><polygon points="161.71 239.54 155.32 249.15 155.32 317.73 150.93 302.94 150.93 249.16 161.71 239.54" style="fill:#fff;stroke:#263238;stroke-linecap:round;stroke-linejoin:round"></polygon><polygon points="131.49 239.51 145.25 248.51 145.25 304.01 141.17 317.9 141.17 248.73 131.49 239.51" style="fill:none;stroke:#263238;stroke-linecap:round;stroke-linejoin:round"></polygon><rect x="151.65" y="249.85" width="2.76" height="1.61" style="fill:#263238;stroke:#263238;stroke-linecap:round;stroke-linejoin:round"></rect><rect x="151.65" y="252.38" width="2.76" height="1.61" style="fill:#263238;stroke:#263238;stroke-linecap:round;stroke-linejoin:round"></rect><rect x="151.65" y="254.91" width="2.76" height="1.61" style="fill:#263238;stroke:#263238;stroke-linecap:round;stroke-linejoin:round"></rect><rect x="151.65" y="257.43" width="2.76" height="1.61" style="fill:#263238;stroke:#263238;stroke-linecap:round;stroke-linejoin:round"></rect><rect x="151.65" y="259.96" width="2.76" height="1.61" style="fill:#263238;stroke:#263238;stroke-linecap:round;stroke-linejoin:round"></rect><rect x="151.65" y="262.49" width="2.76" height="1.61" style="fill:#263238;stroke:#263238;stroke-linecap:round;stroke-linejoin:round"></rect><rect x="151.65" y="265.02" width="2.76" height="1.61" style="fill:#263238;stroke:#263238;stroke-linecap:round;stroke-linejoin:round"></rect><rect x="151.65" y="267.54" width="2.76" height="1.61" style="fill:#263238;stroke:#263238;stroke-linecap:round;stroke-linejoin:round"></rect><rect x="151.65" y="270.07" width="2.76" height="1.61" style="fill:#263238;stroke:#263238;stroke-linecap:round;stroke-linejoin:round"></rect><rect x="151.65" y="272.6" width="2.76" height="1.61" style="fill:#263238;stroke:#263238;stroke-linecap:round;stroke-linejoin:round"></rect><rect x="151.65" y="275.13" width="2.76" height="1.61" style="fill:#263238;stroke:#263238;stroke-linecap:round;stroke-linejoin:round"></rect><rect x="151.65" y="277.65" width="2.76" height="1.61" style="fill:#263238;stroke:#263238;stroke-linecap:round;stroke-linejoin:round"></rect><rect x="151.65" y="280.18" width="2.76" height="1.61" style="fill:#263238;stroke:#263238;stroke-linecap:round;stroke-linejoin:round"></rect><rect x="151.65" y="282.71" width="2.76" height="1.61" style="fill:#263238;stroke:#263238;stroke-linecap:round;stroke-linejoin:round"></rect><rect x="151.65" y="285.23" width="2.76" height="1.61" style="fill:#263238;stroke:#263238;stroke-linecap:round;stroke-linejoin:round"></rect><rect x="151.65" y="287.76" width="2.76" height="1.61" style="fill:#263238;stroke:#263238;stroke-linecap:round;stroke-linejoin:round"></rect><rect x="151.65" y="290.29" width="2.76" height="1.61" style="fill:#263238;stroke:#263238;stroke-linecap:round;stroke-linejoin:round"></rect><rect x="151.65" y="292.82" width="2.76" height="1.61" style="fill:#263238;stroke:#263238;stroke-linecap:round;stroke-linejoin:round"></rect><rect x="151.65" y="295.34" width="2.76" height="1.61" style="fill:#263238;stroke:#263238;stroke-linecap:round;stroke-linejoin:round"></rect><rect x="151.65" y="297.87" width="2.76" height="1.61" style="fill:#263238;stroke:#263238;stroke-linecap:round;stroke-linejoin:round"></rect><rect x="151.65" y="300.4" width="2.76" height="1.61" style="fill:#263238;stroke:#263238;stroke-linecap:round;stroke-linejoin:round"></rect><rect x="151.65" y="302.93" width="2.76" height="1.61" style="fill:#263238;stroke:#263238;stroke-linecap:round;stroke-linejoin:round"></rect><rect x="141.77" y="249.85" width="2.76" height="1.61" style="fill:#263238;stroke:#263238;stroke-linecap:round;stroke-linejoin:round"></rect><rect x="141.77" y="252.38" width="2.76" height="1.61" style="fill:#263238;stroke:#263238;stroke-linecap:round;stroke-linejoin:round"></rect><rect x="141.77" y="254.91" width="2.76" height="1.61" style="fill:#263238;stroke:#263238;stroke-linecap:round;stroke-linejoin:round"></rect><rect x="141.77" y="257.43" width="2.76" height="1.61" style="fill:#263238;stroke:#263238;stroke-linecap:round;stroke-linejoin:round"></rect><rect x="141.77" y="259.96" width="2.76" height="1.61" style="fill:#263238;stroke:#263238;stroke-linecap:round;stroke-linejoin:round"></rect><rect x="141.77" y="262.49" width="2.76" height="1.61" style="fill:#263238;stroke:#263238;stroke-linecap:round;stroke-linejoin:round"></rect><rect x="141.77" y="265.02" width="2.76" height="1.61" style="fill:#263238;stroke:#263238;stroke-linecap:round;stroke-linejoin:round"></rect><rect x="141.77" y="267.54" width="2.76" height="1.61" style="fill:#263238;stroke:#263238;stroke-linecap:round;stroke-linejoin:round"></rect><rect x="141.77" y="270.07" width="2.76" height="1.61" style="fill:#263238;stroke:#263238;stroke-linecap:round;stroke-linejoin:round"></rect><rect x="141.77" y="272.6" width="2.76" height="1.61" style="fill:#263238;stroke:#263238;stroke-linecap:round;stroke-linejoin:round"></rect><rect x="141.77" y="275.13" width="2.76" height="1.61" style="fill:#263238;stroke:#263238;stroke-linecap:round;stroke-linejoin:round"></rect><rect x="141.77" y="277.65" width="2.76" height="1.61" style="fill:#263238;stroke:#263238;stroke-linecap:round;stroke-linejoin:round"></rect><rect x="141.77" y="280.18" width="2.76" height="1.61" style="fill:#263238;stroke:#263238;stroke-linecap:round;stroke-linejoin:round"></rect><rect x="141.77" y="282.71" width="2.76" height="1.61" style="fill:#263238;stroke:#263238;stroke-linecap:round;stroke-linejoin:round"></rect><rect x="141.77" y="285.23" width="2.76" height="1.61" style="fill:#263238;stroke:#263238;stroke-linecap:round;stroke-linejoin:round"></rect><rect x="141.77" y="287.76" width="2.76" height="1.61" style="fill:#263238;stroke:#263238;stroke-linecap:round;stroke-linejoin:round"></rect><rect x="141.77" y="290.29" width="2.76" height="1.61" style="fill:#263238;stroke:#263238;stroke-linecap:round;stroke-linejoin:round"></rect><rect x="141.77" y="292.82" width="2.76" height="1.61" style="fill:#263238;stroke:#263238;stroke-linecap:round;stroke-linejoin:round"></rect><rect x="141.77" y="295.34" width="2.76" height="1.61" style="fill:#263238;stroke:#263238;stroke-linecap:round;stroke-linejoin:round"></rect><rect x="141.77" y="297.87" width="2.76" height="1.61" style="fill:#263238;stroke:#263238;stroke-linecap:round;stroke-linejoin:round"></rect><rect x="141.77" y="300.4" width="2.76" height="1.61" style="fill:#263238;stroke:#263238;stroke-linecap:round;stroke-linejoin:round"></rect><rect x="141.77" y="302.93" width="2.76" height="1.61" style="fill:#263238;stroke:#263238;stroke-linecap:round;stroke-linejoin:round"></rect><rect x="224.78" y="237.91" width="35.18" height="80" style="fill:#fff;stroke:#263238;stroke-linecap:round;stroke-linejoin:round"></rect><rect x="230.63" y="244.08" width="24.1" height="1.54" style="fill:#263238;stroke:#263238;stroke-linecap:round;stroke-linejoin:round"></rect><rect x="230.63" y="247.36" width="24.1" height="1.54" style="fill:#263238;stroke:#263238;stroke-linecap:round;stroke-linejoin:round"></rect><rect x="230.63" y="250.64" width="24.1" height="1.54" style="fill:#263238;stroke:#263238;stroke-linecap:round;stroke-linejoin:round"></rect><rect x="230.63" y="253.92" width="24.1" height="1.54" style="fill:#263238;stroke:#263238;stroke-linecap:round;stroke-linejoin:round"></rect><rect x="230.63" y="257.2" width="24.1" height="1.54" style="fill:#263238;stroke:#263238;stroke-linecap:round;stroke-linejoin:round"></rect><rect x="230.63" y="260.48" width="24.1" height="1.54" style="fill:#263238;stroke:#263238;stroke-linecap:round;stroke-linejoin:round"></rect><rect x="230.63" y="263.75" width="24.1" height="1.54" style="fill:#263238;stroke:#263238;stroke-linecap:round;stroke-linejoin:round"></rect><rect x="230.63" y="267.03" width="24.1" height="1.54" style="fill:#263238;stroke:#263238;stroke-linecap:round;stroke-linejoin:round"></rect><rect x="230.63" y="270.31" width="24.1" height="1.54" style="fill:#263238;stroke:#263238;stroke-linecap:round;stroke-linejoin:round"></rect><rect x="230.63" y="273.59" width="24.1" height="1.54" style="fill:#263238;stroke:#263238;stroke-linecap:round;stroke-linejoin:round"></rect><rect x="230.63" y="276.87" width="24.1" height="1.54" style="fill:#263238;stroke:#263238;stroke-linecap:round;stroke-linejoin:round"></rect><rect x="230.63" y="280.14" width="24.1" height="1.54" style="fill:#263238;stroke:#263238;stroke-linecap:round;stroke-linejoin:round"></rect><rect x="230.63" y="283.42" width="24.1" height="1.54" style="fill:#263238;stroke:#263238;stroke-linecap:round;stroke-linejoin:round"></rect><rect x="230.63" y="286.7" width="24.1" height="1.54" style="fill:#263238;stroke:#263238;stroke-linecap:round;stroke-linejoin:round"></rect><rect x="230.63" y="289.98" width="24.1" height="1.54" style="fill:#263238;stroke:#263238;stroke-linecap:round;stroke-linejoin:round"></rect><rect x="230.63" y="293.26" width="24.1" height="1.54" style="fill:#263238;stroke:#263238;stroke-linecap:round;stroke-linejoin:round"></rect><rect x="230.63" y="296.54" width="24.1" height="1.54" style="fill:#263238;stroke:#263238;stroke-linecap:round;stroke-linejoin:round"></rect><rect x="230.63" y="299.81" width="24.1" height="1.54" style="fill:#263238;stroke:#263238;stroke-linecap:round;stroke-linejoin:round"></rect><rect x="230.63" y="303.09" width="24.1" height="1.54" style="fill:#263238;stroke:#263238;stroke-linecap:round;stroke-linejoin:round"></rect><rect x="230.63" y="306.37" width="24.1" height="1.54" style="fill:#263238;stroke:#263238;stroke-linecap:round;stroke-linejoin:round"></rect><rect x="230.63" y="309.65" width="24.1" height="1.54" style="fill:#263238;stroke:#263238;stroke-linecap:round;stroke-linejoin:round"></rect><rect x="230.63" y="312.93" width="24.1" height="1.54" style="fill:#263238;stroke:#263238;stroke-linecap:round;stroke-linejoin:round"></rect><polygon points="224.78 237.91 228.85 237.91 235 245.72 240.35 265.68 240.35 317.9 224.78 317.9 224.78 237.91" style="fill:#fff;stroke:#263238;stroke-linecap:round;stroke-linejoin:round"></polygon><polygon points="256.04 237.93 251.55 245.03 246.63 265.68 246.63 317.9 259.96 317.9 259.96 237.91 256.04 237.93" style="fill:#fff;stroke:#263238;stroke-linecap:round;stroke-linejoin:round"></polygon><line x1="252.38" y1="298.79" x2="252.38" y2="316.02" style="fill:#fff;stroke:#263238;stroke-linecap:round;stroke-linejoin:round"></line><line x1="252.38" y1="245.72" x2="252.38" y2="296.72" style="fill:#fff;stroke:#263238;stroke-linecap:round;stroke-linejoin:round"></line><line x1="234.46" y1="277.42" x2="234.46" y2="316.02" style="fill:#fff;stroke:#263238;stroke-linecap:round;stroke-linejoin:round"></line><line x1="234.46" y1="248.01" x2="234.46" y2="274.9" style="fill:#fff;stroke:#263238;stroke-linecap:round;stroke-linejoin:round"></line><rect x="271.08" y="233.94" width="35.04" height="83.9" style="fill:#fff;stroke:#263238;stroke-linecap:round;stroke-linejoin:round"></rect><path d="M287.36,230.83c-8.28,0-15,.29-15,.64v1.15h30v-1.15C302.37,231.12,295.65,230.83,287.36,230.83Z" style="fill:#fff;stroke:#263238;stroke-linecap:round;stroke-linejoin:round"></path><ellipse cx="287.36" cy="232.55" rx="15" ry="0.64" style="fill:#263238;stroke:#263238;stroke-linecap:round;stroke-linejoin:round"></ellipse><polygon points="277.51 233.94 277.51 239.08 273.33 239.08 273.33 233.94 271.08 233.94 271.08 317.84 280.08 317.84 280.08 233.94 277.51 233.94" style="fill:#fff;stroke:#263238;stroke-linecap:round;stroke-linejoin:round"></polygon><rect x="273.01" y="242.3" width="4.18" height="1.61" style="fill:#263238;stroke:#263238;stroke-linecap:round;stroke-linejoin:round"></rect><rect x="273.01" y="245.99" width="4.18" height="1.61" style="fill:#263238;stroke:#263238;stroke-linecap:round;stroke-linejoin:round"></rect><rect x="273.01" y="249.69" width="4.18" height="1.61" style="fill:#263238;stroke:#263238;stroke-linecap:round;stroke-linejoin:round"></rect><rect x="273.01" y="253.39" width="4.18" height="1.61" style="fill:#263238;stroke:#263238;stroke-linecap:round;stroke-linejoin:round"></rect><rect x="273.01" y="257.08" width="4.18" height="1.61" style="fill:#263238;stroke:#263238;stroke-linecap:round;stroke-linejoin:round"></rect><rect x="273.01" y="260.78" width="4.18" height="1.61" style="fill:#263238;stroke:#263238;stroke-linecap:round;stroke-linejoin:round"></rect><rect x="273.01" y="264.48" width="4.18" height="1.61" style="fill:#263238;stroke:#263238;stroke-linecap:round;stroke-linejoin:round"></rect><rect x="273.01" y="268.17" width="4.18" height="1.61" style="fill:#263238;stroke:#263238;stroke-linecap:round;stroke-linejoin:round"></rect><rect x="273.01" y="271.87" width="4.18" height="1.61" style="fill:#263238;stroke:#263238;stroke-linecap:round;stroke-linejoin:round"></rect><rect x="273.01" y="275.57" width="4.18" height="1.61" style="fill:#263238;stroke:#263238;stroke-linecap:round;stroke-linejoin:round"></rect><rect x="273.01" y="279.26" width="4.18" height="1.61" style="fill:#263238;stroke:#263238;stroke-linecap:round;stroke-linejoin:round"></rect><rect x="273.01" y="282.96" width="4.18" height="1.61" style="fill:#263238;stroke:#263238;stroke-linecap:round;stroke-linejoin:round"></rect><rect x="273.01" y="286.66" width="4.18" height="1.61" style="fill:#263238;stroke:#263238;stroke-linecap:round;stroke-linejoin:round"></rect><rect x="273.01" y="290.35" width="4.18" height="1.61" style="fill:#263238;stroke:#263238;stroke-linecap:round;stroke-linejoin:round"></rect><rect x="273.01" y="294.05" width="4.18" height="1.61" style="fill:#263238;stroke:#263238;stroke-linecap:round;stroke-linejoin:round"></rect><rect x="273.01" y="297.75" width="4.18" height="1.61" style="fill:#263238;stroke:#263238;stroke-linecap:round;stroke-linejoin:round"></rect><rect x="273.01" y="301.44" width="4.18" height="1.61" style="fill:#263238;stroke:#263238;stroke-linecap:round;stroke-linejoin:round"></rect><rect x="273.01" y="305.14" width="4.18" height="1.61" style="fill:#263238;stroke:#263238;stroke-linecap:round;stroke-linejoin:round"></rect><rect x="273.01" y="308.84" width="4.18" height="1.61" style="fill:#263238;stroke:#263238;stroke-linecap:round;stroke-linejoin:round"></rect><rect x="273.01" y="312.53" width="4.18" height="1.61" style="fill:#263238;stroke:#263238;stroke-linecap:round;stroke-linejoin:round"></rect><line x1="282.65" y1="239.08" x2="301.29" y2="239.08" style="fill:#fff;stroke:#263238;stroke-linecap:round;stroke-linejoin:round"></line><line x1="303.87" y1="245.19" x2="298.4" y2="245.19" style="fill:#fff;stroke:#263238;stroke-linecap:round;stroke-linejoin:round"></line><line x1="282.01" y1="257.73" x2="302.26" y2="257.73" style="fill:#fff;stroke:#263238;stroke-linecap:round;stroke-linejoin:round"></line><line x1="290.69" y1="266.41" x2="295.83" y2="266.41" style="fill:#fff;stroke:#263238;stroke-linecap:round;stroke-linejoin:round"></line><line x1="304.83" y1="280.23" x2="289.4" y2="280.23" style="fill:#fff;stroke:#263238;stroke-linecap:round;stroke-linejoin:round"></line><line x1="287.47" y1="280.23" x2="285.22" y2="280.23" style="fill:#fff;stroke:#263238;stroke-linecap:round;stroke-linejoin:round"></line><line x1="285.86" y1="303.69" x2="295.83" y2="303.69" style="fill:#fff;stroke:#263238;stroke-linecap:round;stroke-linejoin:round"></line></g><g id="freepik--Bridge--inject-79"><path d="M411.13,329.46,379.74,221.73l15-88.47h-3.57l-.35,2.06-9.64,5.07-5.06,30.68H356.26l-5.06-30.68-12.84-7.13h-3.57l3.92,2.17,13.92,86.3-31.4,107.73h25l-1-8.66a67.48,67.48,0,0,1,40,.55l1.85.6-.86,7.51ZM374.92,178.2l-5.65,34.25h-6.18l-5.65-34.25Zm-11.59,50.66v-.71H369v.71l16,60.65H347.31ZM344,310.2l-.65-5.71,1.1-4.15a67.45,67.45,0,0,1,40.72.32l3.1,1,.74,2.83-.65,5.71Z" style="fill:#263238;stroke:#263238;stroke-linecap:round;stroke-linejoin:round"></path><path d="M407.56,329.46,376.17,221.73l15-88.47-13.55,7.13-5.07,30.68H352.69l-5.06-30.68-12.84-7.13,14.27,88.47-31.4,107.73h25l-1-8.66a67.45,67.45,0,0,1,40,.55l1.85.6-.86,7.51ZM371.36,178.2l-5.66,34.25h-6.18l-5.65-34.25Zm-11.6,50.66v-.71h5.71v.71l16,60.65H343.74ZM340.44,310.2l-.66-5.71,1.1-4.15a67.45,67.45,0,0,1,40.72.32l3.1,1,.75,2.83-.66,5.71Z" style="fill:#24D6E1;stroke:#263238;stroke-linecap:round;stroke-linejoin:round"></path><path d="M105.72,316.35v3.93c49.16-2,148.31-6,217-7.33l1.11-3.94C254.87,310.35,155.15,314.29,105.72,316.35Z" style="fill:#fff;stroke:#263238;stroke-linecap:round;stroke-linejoin:round"></path><line x1="108.44" y1="329.63" x2="480.16" y2="329.63" style="fill:#fff;stroke:#263238;stroke-linecap:round;stroke-linejoin:round"></line><line x1="381.49" y1="152.46" x2="208.72" y2="301.44" style="fill:#fff;stroke:#263238;stroke-linecap:round;stroke-linejoin:round"></line><line x1="380.9" y1="156.04" x2="220.72" y2="298.92" style="fill:#fff;stroke:#263238;stroke-linecap:round;stroke-linejoin:round"></line><line x1="379.91" y1="160" x2="230.63" y2="298.08" style="fill:#fff;stroke:#263238;stroke-linecap:round;stroke-linejoin:round"></line><line x1="379.41" y1="164.94" x2="242.68" y2="297.31" style="fill:#fff;stroke:#263238;stroke-linecap:round;stroke-linejoin:round"></line><line x1="378.92" y1="169.88" x2="254.73" y2="294.8" style="fill:#fff;stroke:#263238;stroke-linecap:round;stroke-linejoin:round"></line><line x1="377.44" y1="175.32" x2="264.72" y2="293.48" style="fill:#fff;stroke:#263238;stroke-linecap:round;stroke-linejoin:round"></line><line x1="375.46" y1="181.75" x2="273.01" y2="294.05" style="fill:#fff;stroke:#263238;stroke-linecap:round;stroke-linejoin:round"></line><line x1="375.46" y1="188.18" x2="285.98" y2="293.48" style="fill:#fff;stroke:#263238;stroke-linecap:round;stroke-linejoin:round"></line><line x1="373.97" y1="194.11" x2="297.35" y2="291.01" style="fill:#fff;stroke:#263238;stroke-linecap:round;stroke-linejoin:round"></line><line x1="372.49" y1="201.03" x2="310.69" y2="291.01" style="fill:#fff;stroke:#263238;stroke-linecap:round;stroke-linejoin:round"></line><line x1="372" y1="206.96" x2="321.08" y2="288.53" style="fill:#fff;stroke:#263238;stroke-linecap:round;stroke-linejoin:round"></line><line x1="343.82" y1="152.46" x2="464.86" y2="311.04" style="fill:#fff;stroke:#263238;stroke-linecap:round;stroke-linejoin:round"></line><line x1="344.26" y1="156.54" x2="458.19" y2="310.93" style="fill:#fff;stroke:#263238;stroke-linecap:round;stroke-linejoin:round"></line><line x1="345.01" y1="161.04" x2="451.85" y2="311.19" style="fill:#fff;stroke:#263238;stroke-linecap:round;stroke-linejoin:round"></line><line x1="345.38" y1="166.67" x2="443.27" y2="310.65" style="fill:#fff;stroke:#263238;stroke-linecap:round;stroke-linejoin:round"></line><line x1="345.75" y1="172.31" x2="436.4" y2="310.84" style="fill:#fff;stroke:#263238;stroke-linecap:round;stroke-linejoin:round"></line><line x1="346.86" y1="178.5" x2="429.46" y2="310.06" style="fill:#fff;stroke:#263238;stroke-linecap:round;stroke-linejoin:round"></line><line x1="348.34" y1="185.82" x2="422.89" y2="309.98" style="fill:#fff;stroke:#263238;stroke-linecap:round;stroke-linejoin:round"></line><line x1="348.34" y1="193.14" x2="413.97" y2="310.48" style="fill:#fff;stroke:#263238;stroke-linecap:round;stroke-linejoin:round"></line><line x1="349.45" y1="199.9" x2="406.9" y2="310.26" style="fill:#fff;stroke:#263238;stroke-linecap:round;stroke-linejoin:round"></line><line x1="350.56" y1="207.78" x2="396.89" y2="310.26" style="fill:#fff;stroke:#263238;stroke-linecap:round;stroke-linejoin:round"></line><line x1="350.94" y1="214.54" x2="389.74" y2="308.95" style="fill:#fff;stroke:#263238;stroke-linecap:round;stroke-linejoin:round"></line><path d="M380.42,285.55c-84.68,2.22-164.3,11.13-217,18.21-22.72,3.06-42.33,6.05-57.74,8.54v4c15.47-2.51,35.27-5.53,58.26-8.63,52.56-7.07,133-16,217.47-18.18Z" style="fill:#fff;stroke:#263238;stroke-linecap:round;stroke-linejoin:round"></path><path d="M482.5,309.31c-19-.68-49.61-1.26-97.71-1.07-14.07.05-29.18.22-44.8.48l1.86,3.89c15-.24,29.44-.4,42.95-.45,48-.18,78.68.41,97.7,1.11Z" style="fill:#fff;stroke:#263238;stroke-linecap:round;stroke-linejoin:round"></path></g><g id="freepik--Sea--inject-79"><line x1="406.12" y1="351.65" x2="406.12" y2="395.33" style="fill:#fff;stroke:#263238;stroke-linecap:round;stroke-linejoin:round"></line><line x1="406.12" y1="333.67" x2="406.12" y2="347.85" style="fill:#fff;stroke:#263238;stroke-linecap:round;stroke-linejoin:round"></line><line x1="382.66" y1="339.68" x2="382.66" y2="345.13" style="fill:#fff;stroke:#263238;stroke-linecap:round;stroke-linejoin:round"></line><line x1="334.1" y1="345.94" x2="334.1" y2="350.59" style="fill:#fff;stroke:#263238;stroke-linecap:round;stroke-linejoin:round"></line><line x1="334.1" y1="337.49" x2="334.1" y2="342.85" style="fill:#fff;stroke:#263238;stroke-linecap:round;stroke-linejoin:round"></line><line x1="445.95" y1="335.31" x2="445.95" y2="342.4" style="fill:#fff;stroke:#263238;stroke-linecap:round;stroke-linejoin:round"></line><line x1="286.63" y1="376.39" x2="286.63" y2="382.78" style="fill:#fff;stroke:#263238;stroke-linecap:round;stroke-linejoin:round"></line><line x1="286.63" y1="337.49" x2="286.63" y2="372.1" style="fill:#fff;stroke:#263238;stroke-linecap:round;stroke-linejoin:round"></line><line x1="176.42" y1="337.49" x2="176.42" y2="382.78" style="fill:#fff;stroke:#263238;stroke-linecap:round;stroke-linejoin:round"></line><line x1="205.89" y1="350.23" x2="205.89" y2="400.24" style="fill:#fff;stroke:#263238;stroke-linecap:round;stroke-linejoin:round"></line><line x1="205.89" y1="337.49" x2="205.89" y2="346.66" style="fill:#fff;stroke:#263238;stroke-linecap:round;stroke-linejoin:round"></line><line x1="303" y1="333.13" x2="303" y2="360.41" style="fill:#fff;stroke:#263238;stroke-linecap:round;stroke-linejoin:round"></line><line x1="253.35" y1="334.77" x2="253.35" y2="357.68" style="fill:#fff;stroke:#263238;stroke-linecap:round;stroke-linejoin:round"></line><line x1="127.87" y1="338.59" x2="127.87" y2="376.78" style="fill:#fff;stroke:#263238;stroke-linecap:round;stroke-linejoin:round"></line><line x1="137.14" y1="359.32" x2="137.14" y2="383.87" style="fill:#fff;stroke:#263238;stroke-linecap:round;stroke-linejoin:round"></line></g><g id="freepik--Tree--inject-79"><path d="M106.06,155a73.23,73.23,0,0,1-1.36,10.88s-8.16-3.4-12.24-6.8l-4.08-3.4a16.38,16.38,0,0,1,0,8.84c-1.36,4.76-6.8,12.24-6.8,12.24l-5.44-6.12-2-5.44s1.36,15.64-2.72,20.4a56.29,56.29,0,0,1-8.84,8.16l-5.3-13.26c18-16.59,36.53-31.84,46.29-49.28,2.63.77,5.31,1.53,7.29,2,3.31.83,6.62,3.43,8.71,5.33,1.33,1.22,2.17,2.15,2.17,2.15l-12.92,1.36s6.12,2,6.8,4.08,1.36,5.44,1.36,5.44L104,147.53A16.23,16.23,0,0,1,106.06,155ZM237.29,61.86c3.4,1.36,13.59,10.88,13.59,10.88s-6.12.68-14.95,1.36-15-5.44-15-5.44,4.76,6.12,7.48,9.52,1.36,17.68,1.36,17.68-15.86,3-22.44-4.08-8.16-10.88-8.16-10.88l-1.36,19.72s-8.77-3.93-15.82-8c1,4.54,1.54,8,1.54,8s-4.76-1.36-15-4.08S147.53,85,147.53,85A56.5,56.5,0,0,1,153,97.22a53.57,53.57,0,0,1,2,13.6l-10.2-10.88s2.72,7.48.68,12.24a39.13,39.13,0,0,1-4.76,8.16s-3.4-4.08-8.15-10.88-4.76-21.08-4.76-21.08-3.4,19.72-7.48,26.52l-4.08,6.8-5.37-9.13c.45-1.3.9-2.59,1.37-3.88l0-.12c.46-1.26.93-2.51,1.41-3.76l0-.1c.48-1.26,1-2.52,1.48-3.76v0c6.68-16.55,15.18-31.89,26.41-44.69v0a102.09,102.09,0,0,1,41-28.68c16.75.31,37.69,1.68,37.69,1.68l-12.24,3.4,10.2,4.08c3.4,1.36,13.6,10.88,13.6,10.88s-6.12.68-15,1.36-15-5.44-15-5.44,4.65,6,7.38,9.4c14.85.49,30,1.48,30,1.48l-12.24,3.4Zm-85-16.15-.56,5.3h.38A43.76,43.76,0,0,1,152.27,45.71Z" style="fill:#263238"></path></g><g id="freepik--Character--inject-79"><path d="M157.26,443.43c3.28-1.12,5.21-1.87,5.21-1.87l-5.39-19.3s-56.8-.37-68-1.12-18.24-8.53-22.39-7.42-9.12,14.1-9.12,14.1l-3.73.38-1,15.23Z" style="fill:#fff;stroke:#263238;stroke-linecap:round;stroke-linejoin:round"></path><path d="M157.08,408.76l3.73,19.07s-7.88,4.56-31.92,6.63-54.72-.83-54.72-.83L68.36,421.2l-2.07,14.51h-12a6.41,6.41,0,0,1-3.32-.83l3.73-15.34s1.66-15.34,9.54-19.07,14.51.41,19.9,5.39S95.72,410,104.43,410s45.6-3.73,45.6-3.73S156.25,404.2,157.08,408.76Z" style="fill:#969696;stroke:#263238;stroke-linecap:round;stroke-linejoin:round"></path><path d="M144.64,267.81s14.93,38.14,21.14,51.82,12,29.43,11.2,38.14-11.2,31.51-11.2,31.51-9.95-65.5-12-72.14-11.61-43.53-11.61-43.53S138,265.74,144.64,267.81Z" style="fill:#24D6E1;stroke:#263238;stroke-linecap:round;stroke-linejoin:round"></path><path d="M63.23,253.35s-8.7,9-11.38,20.08-4.68,148.92-4.68,151.26,10-3,12-4,10.37-16.74,10.37-16.74l4,16.07s18.4-2,33.8-2,55.89-3.68,55.89-3.68,3.68-22.42,3.34-34.47-3-31.13-3-34.14-12.72-66.6-17.4-76-10.71-17.73-11.71-18.4-13.06-7.7-24.44-8.37S91,239.29,81,244,63.23,253.35,63.23,253.35Z" style="fill:#24D6E1;stroke:#263238;stroke-linecap:round;stroke-linejoin:round"></path><path d="M128.49,294.51s5.69,32.8,7.36,43.84,5.36,54.22,5.36,60.57V414" style="fill:none;stroke:#263238;stroke-linecap:round;stroke-linejoin:round"></path><path d="M118.45,308.56s6.36,32.8,9.71,52.55S130.5,409,130.5,409" style="fill:none;stroke:#263238;stroke-linecap:round;stroke-linejoin:round"></path><polyline points="82.31 311.24 111.09 308.56 112.09 314.92 84.32 317.27" style="fill:none;stroke:#263238;stroke-linecap:round;stroke-linejoin:round"></polyline><polyline points="154.26 304.55 137.53 305.89 138.87 311.58 153.59 310.24" style="fill:none;stroke:#263238;stroke-linecap:round;stroke-linejoin:round"></polyline><path d="M106.07,223.23s-15.4-3-20.08-1-9,10-10.38,12.72-15.39,8.37-16.39,12.38S58.88,258,60.55,259.7s11.38,1,13.73,1.68,33.8,21.42,39.15,24.76,14.73,8,16.07,6.7,9.7-22.09,11-31.8S140.2,249,135.85,241,114.1,224.23,106.07,223.23Z" style="fill:#263238;stroke:#263238;stroke-linecap:round;stroke-linejoin:round"></path><path d="M101.38,196.79s2.35,14.72,2.35,18.74-6.36,23.09-6.36,23.09,12.71,27.44,19.74,35.14,10.38,9.37,10.38,9.37,1-15.73,2-23.09,11.58-28.9,11.58-28.9-15.94,2.46-17.94-7.91-1.34-19.41-3.35-24.77S105.4,194.44,101.38,196.79Z" style="fill:#fff;stroke:#263238;stroke-linecap:round;stroke-linejoin:round"></path><path d="M124,226.23l-7.65-1.44.63,6.6s4.72,12.26,13.51,18.54a15.78,15.78,0,0,0,1.43.91c1.82-5.26,9.16-19.7,9.16-19.7S127.19,235,124,226.23Z" style="fill:#263238;stroke:#263238;stroke-linecap:round;stroke-linejoin:round"></path><path d="M150.93,192.68l-.53,9.19s8.3,6,9.12,8.9-4,6.7-4,6.7-.74,15.86-2.13,18.34-8.28,2.68-12.1,2.72-22.73-5.41-26-8.31S108.06,217,108.06,217l-4.82-17.07c-.64-2.25,1.63-5.32,11.52-8.46S151.45,188.36,150.93,192.68Z" style="fill:#fff;stroke:#263238;stroke-linecap:round;stroke-linejoin:round"></path><path d="M106.2,203.48s2.3,5.09,6.56,1.88,5.16-9.21,5.16-9.21L92.57,203s-2,10.32,2,15.23,9.79,2.12,9.46-2.1S106.2,203.48,106.2,203.48Z" style="fill:#263238;stroke:#263238;stroke-linecap:round;stroke-linejoin:round"></path><path d="M155.5,217.47S144.27,219,143,221.4s-2.45,5.52-3.67,6.44-10.83.45-15.37-1.61-7-6.36-7.91-10.95-2.45-12.87-2.45-12.87l-5.21.31s2.33,22.13,4.59,24.81a19.6,19.6,0,0,0,9.5,6.43,116.3,116.3,0,0,0,18.75,4.57c7.9,1.25,13.42,1.25,14.64-2.73S155.5,217.47,155.5,217.47Z" style="fill:#263238;stroke:#263238;stroke-linecap:round;stroke-linejoin:round"></path><path d="M155,224.77s-5.21,1.54-8.58-.92" style="fill:none;stroke:#fff;stroke-linecap:round;stroke-linejoin:round"></path><path d="M145.56,203c.42,1.51.19,2.9-.52,3.1s-1.63-.86-2.06-2.38-.19-2.9.52-3.1S145.13,201.45,145.56,203Z" style="fill:#263238"></path><path d="M92.24,204s15-2.48,33-7.57,25.91-8,25.91-8L143.07,163a9.63,9.63,0,0,0-4.95-5c-5.14-2.31-15.86-1.78-23.58-.58-11,1.71-19.5,4.81-23.89,12.66a29.09,29.09,0,0,0-2.46,20.86C89.37,195.1,92.24,204,92.24,204Z" style="fill:#263238;stroke:#263238;stroke-linecap:round;stroke-linejoin:round"></path><path d="M119.1,198.19s27.41-1.48,37.9-3.75,19.12-14.78,19.12-14.78L151,182.93A57.84,57.84,0,0,0,119.1,198.19Z" style="fill:#263238;stroke:#263238;stroke-linecap:round;stroke-linejoin:round"></path><path d="M108.08,205.65s-2.32-7-8.26-4.63-2.66,14,1.78,18.63,9.93-1.76,9.93-1.76" style="fill:#fff;stroke:#263238;stroke-linecap:round;stroke-linejoin:round"></path><path d="M75.26,289.82c-2.1,5.66-5.43,55.79-5.43,55.79l-.6,5.58-.54,1.22L95,372.15s-5.08,11.66-9.19,16.07S73,396.91,73,396.91a156.28,156.28,0,0,1-28.36-20C31.58,365,24,357,21.64,349.81s6.18-19.21,7.73-21.1,20.39-59.12,26.44-63.79,13.5-8.36,19.14-3.71,6.94,15.07,6,19" style="fill:#24D6E1;stroke:#263238;stroke-linecap:round;stroke-linejoin:round"></path><path d="M45.27,343.46c3.88-.34,7.58-.56,8.84-.32,3,.59,12.7,7.73,12.7,7.73" style="fill:none;stroke:#263238;stroke-linecap:round;stroke-linejoin:round"></path><path d="M34.11,344.65s3.26-.4,7.18-.81" style="fill:none;stroke:#263238;stroke-linecap:round;stroke-linejoin:round"></path><path d="M60,337.66a20.47,20.47,0,0,0-4.08-3.6c-2.15-.94-13.66-.48-13.66-.48" style="fill:none;stroke:#263238;stroke-linecap:round;stroke-linejoin:round"></path><path d="M66.5,344.89s-1.4-1.63-3.19-3.63" style="fill:none;stroke:#263238;stroke-linecap:round;stroke-linejoin:round"></path><path d="M96.67,365.54s-7.7,22-25.31,33.57l3.85,6.05s25.86-11,29.16-36.86" style="fill:#24D6E1;stroke:#263238;stroke-linecap:round;stroke-linejoin:round"></path><path d="M150.4,197.2,136,198.43s.61,9.19,4,10.72,8.58.61,10.42-1.22S150.4,197.2,150.4,197.2Z" style="fill:none;stroke:#263238;stroke-linecap:round;stroke-linejoin:round;stroke-width:2px"></path><line x1="136" y1="198.43" x2="108.69" y2="205.65" style="fill:none;stroke:#263238;stroke-linecap:round;stroke-linejoin:round;stroke-width:2px"></line><path d="M150.4,197.2l8-.92s1.84,7.05-1.84,9.19" style="fill:none;stroke:#263238;stroke-linecap:round;stroke-linejoin:round;stroke-width:2px"></path></g><g id="freepik--Plants--inject-79"><path d="M404.59,380.65c2.23,1,7.66.85,7.67.85s-1.17-3.56-1.27-3.78c-1.2-2.49-5-6.61-8-6.2a3.67,3.67,0,0,0-2.94,4.6C400.52,378.24,402.7,379.82,404.59,380.65Z" style="fill:#263238"></path><path d="M406.47,396.4c2.3.33,7.16-1.07,7.54-1.19a64.45,64.45,0,0,0,2.95,8.15c.66,1.54,1.38,3.08,2.12,4.61-.44-.65-.84-1.23-.9-1.3-1.81-2.09-6.54-5.07-9.39-3.86a3.66,3.66,0,0,0-1.62,5.21c1.05,1.91,3.57,2.86,5.61,3.16s6.24-.82,7.34-1.13l.86,1.76c1.41,2.79,2.82,5.58,4.13,8.35.46,1,.87,2,1.29,2.94-.39-.57-.73-1.06-.79-1.12-1.81-2.1-6.53-5.07-9.38-3.86a3.66,3.66,0,0,0-1.63,5.2c1.06,1.92,3.58,2.87,5.62,3.17s5.83-.71,7.14-1.07c.4,1,.8,2,1.14,3,.22.69.48,1.34.66,2s.39,1.38.58,2.06c.31,1.33.65,2.69.93,4,.2.9.37,1.76.55,2.63-.45-1-1.36-2.87-1.46-3-1.47-2.34-5.69-6-8.69-5.24a3.67,3.67,0,0,0-2.4,4.9c.75,2.06,3.1,3.37,5.08,4,2.17.66,7,.06,7.59,0,.24,1.21.47,2.39.67,3.54h1.86c-.27-1.38-.59-2.83-.92-4.33a38.63,38.63,0,0,0,4.23-2c1.59,1.72,5.65,3.73,6.18,4-.33.8-.65,1.58-1,2.34h1.93q.4-1,.81-2.1c.58.12,5.35,1.09,7.57.58,2-.45,4.46-1.59,5.36-3.58a3.67,3.67,0,0,0-2-5.07c-2.93-1-7.41,2.35-9.06,4.57-.09.14-1,1.68-1.53,2.66.23-.63.47-1.23.7-1.88.47-1.28.9-2.56,1.37-3.95.2-.68.4-1.36.61-2.05s.36-1.43.55-2.14c.4-1.68.72-3.4,1-5.14,1.12.41,5.11,1.8,7.19,1.65s4.64-.9,5.83-2.73a3.65,3.65,0,0,0-1.23-5.31c-2.75-1.42-7.69,1.19-9.65,3.15-.12.12-1.37,1.67-2,2.54.17-1,.34-2.09.47-3.15.38-3.07.67-6.19,1-9.3.1-1,.2-1.9.3-2.85.4.14,5.11,1.9,7.43,1.74,2.06-.15,4.64-.9,5.84-2.74a3.66,3.66,0,0,0-1.24-5.31c-2.75-1.42-7.68,1.2-9.64,3.15-.15.14-2,2.39-2.37,3,.22-2.09.46-4.17.78-6.22a64.06,64.06,0,0,1,1.78-8.18c.19.07,5.1,1.93,7.47,1.76,2.06-.14,4.65-.9,5.84-2.73a3.67,3.67,0,0,0-1.23-5.32c-2.75-1.42-7.69,1.2-9.65,3.15-.15.15-2.08,2.57-2.4,3,.05-.15.08-.32.12-.47a46.7,46.7,0,0,1,3.25-7.74c.7-1.38,1.45-2.66,2.21-3.89.88.44,4.92,2.4,7.07,2.49s4.72-.39,6.11-2.08a3.67,3.67,0,0,0-.64-5.41c-2.58-1.72-7.78.34-9.94,2.07-.12.09-1.21,1.18-2,2,.35-.55.7-1.12,1.05-1.64,1.29-1.95,2.6-3.66,3.77-5.16.67-.85,1.3-1.61,1.89-2.31,1.09,0,5.47-.15,7.38-1.05s4-2.51,4.46-4.65a3.65,3.65,0,0,0-3.06-4.51c-3.08-.34-6.74,3.88-7.86,6.41-.1.22-1.23,3.81-1.17,3.81h.06c-.58.66-1.2,1.38-1.86,2.17-1.2,1.48-2.55,3.16-3.89,5.1a63.21,63.21,0,0,0-4,6.43,47.53,47.53,0,0,0-3.45,7.77l0,.09c0-.9,0-3.44-.05-3.64-.35-2.74-2.65-7.83-5.7-8.39a3.67,3.67,0,0,0-4.23,3.44c-.17,2.18,1.41,4.36,3,5.74,1.73,1.55,6.56,3.06,6.94,3.17a65.92,65.92,0,0,0-2,8.42c-.29,1.66-.54,3.33-.76,5,0-.79,0-1.49,0-1.59-.36-2.74-2.66-7.83-5.7-8.39a3.66,3.66,0,0,0-4.23,3.45c-.18,2.17,1.4,4.36,2.94,5.73s5.65,2.76,6.74,3.11c-.08.65-.17,1.29-.25,1.94-.37,3.11-.73,6.21-1.17,9.25-.16,1.06-.35,2.11-.54,3.16,0-.7,0-1.28,0-1.37-.35-2.75-2.65-7.84-5.7-8.4a3.65,3.65,0,0,0-4.22,3.45c-.18,2.18,1.4,4.36,2.94,5.73s5.25,2.63,6.54,3.05c-.23,1.06-.45,2.13-.72,3.16-.2.69-.34,1.38-.58,2.06s-.44,1.37-.65,2c-.47,1.28-.94,2.6-1.43,3.84-.33.86-.66,1.68-1,2.5.17-1.06.45-3.15.46-3.33a14.25,14.25,0,0,0-1.91-6.92,4.41,4.41,0,0,0-.05-.81,3.68,3.68,0,0,0-4.49-3.11c-3,.8-4.89,6.05-5,8.81,0,.16.1,1.94.19,3.06-.16-.65-.29-1.28-.46-1.95-.31-1.32-.66-2.64-1-4.05l-.62-2.05c-.19-.68-.48-1.39-.72-2.09-.59-1.62-1.27-3.23-2-4.84,1.16-.28,5.26-1.32,6.9-2.58s3.38-3.32,3.37-5.51a3.67,3.67,0,0,0-4-3.75c-3.08.34-5.75,5.24-6.31,7.95,0,.17-.22,2.16-.3,3.25-.44-1-.87-1.92-1.35-2.88-1.38-2.78-2.86-5.54-4.32-8.3l-1.33-2.54c.42-.1,5.32-1.23,7.16-2.65,1.64-1.26,3.38-3.31,3.36-5.5a3.66,3.66,0,0,0-4-3.75c-3.08.33-5.75,5.24-6.31,7.94,0,.21-.3,3.07-.33,3.8-1-1.86-1.92-3.73-2.78-5.62a65.2,65.2,0,0,1-3-7.8c.19-.05,5.31-1.21,7.2-2.66,1.64-1.26,3.38-3.31,3.36-5.5a3.66,3.66,0,0,0-4-3.75c-3.08.33-5.75,5.24-6.31,8,0,.21-.32,3.29-.33,3.85,0-.16-.11-.31-.16-.47a47.46,47.46,0,0,1-1.56-8.24c-.18-1.54-.26-3-.3-4.46,1-.12,5.43-.71,7.27-1.83s3.72-2.92,3.95-5.1a3.66,3.66,0,0,0-3.53-4.16c-3.09,0-6.29,4.58-7.14,7.21-.05.14-.36,1.65-.57,2.75,0-.65,0-1.33,0-1.95,0-2.34.15-4.49.3-6.38.09-1.08.2-2.06.31-3,.89-.61,4.47-3.14,5.58-5s1.95-4.31,1.15-6.34a3.67,3.67,0,0,0-5.05-2.07c-2.75,1.42-3.47,7-3,9.68,0,.24,1.08,3.86,1.13,3.82l.05,0c-.12.87-.24,1.81-.35,2.84-.19,1.9-.38,4-.44,6.39a66,66,0,0,0,.18,7.6,47.65,47.65,0,0,0,1.41,8.38l0,.1c-.49-.77-1.92-2.86-2.05-3-1.81-2.09-6.53-5.07-9.38-3.86a3.67,3.67,0,0,0-1.63,5.21C401.9,395.15,404.43,396.1,406.47,396.4Z" style="fill:#263238"></path><path d="M459.58,381.85c.05,0,1-3.62,1-3.85.39-2.74-.49-8.26-3.28-9.61a3.66,3.66,0,0,0-5,2.21c-.75,2.06.2,4.58,1.32,6.31C455,379,459.58,381.84,459.58,381.85Z" style="fill:#263238"></path><path d="M339,403.15c1.52.67,5.22.58,5.22.58s-.79-2.42-.86-2.57c-.82-1.7-3.38-4.5-5.47-4.22a2.5,2.5,0,0,0-2,3.13A5.19,5.19,0,0,0,339,403.15Z" style="fill:#263238"></path><path d="M375.43,442.34a2.5,2.5,0,0,0-1.38-3.45c-2-.67-5.05,1.6-6.17,3.12-.05.07-.42.7-.76,1.3h7.61A3.34,3.34,0,0,0,375.43,442.34Z" style="fill:#263238"></path><path d="M364.09,432.51a15.84,15.84,0,0,0,4.45,2.07c-.15.73-.3,1.46-.49,2.15-.13.48-.23.94-.39,1.41l-.45,1.39c-.31.87-.63,1.77-1,2.61-.15.4-.3.78-.46,1.17H367c.1-.26.2-.51.29-.77.32-.87.61-1.75.93-2.69l.42-1.4c.15-.46.25-1,.37-1.46.28-1.14.5-2.31.69-3.49a16.57,16.57,0,0,0,4.89,1.12c1.41-.1,3.17-.61,4-1.86a2.5,2.5,0,0,0-.84-3.62c-1.87-1-5.23.82-6.57,2.14-.08.09-.93,1.15-1.39,1.74.11-.71.23-1.42.32-2.15.26-2.09.46-4.21.66-6.33.06-.65.14-1.3.2-1.94.27.1,3.48,1.29,5.06,1.18a5.24,5.24,0,0,0,4-1.86,2.5,2.5,0,0,0-.84-3.62c-1.88-1-5.24.82-6.57,2.15-.1.1-1.32,1.62-1.61,2,.15-1.43.31-2.84.53-4.24a42.45,42.45,0,0,1,1.21-5.56c.13,0,3.47,1.31,5.09,1.19,1.4-.1,3.16-.61,4-1.86a2.49,2.49,0,0,0-.83-3.62c-1.88-1-5.24.82-6.57,2.15-.11.1-1.42,1.74-1.64,2.06a3,3,0,0,1,.09-.32A31.8,31.8,0,0,1,375,407c.48-.94,1-1.81,1.51-2.65a16.78,16.78,0,0,0,4.82,1.7c1.4.05,3.21-.27,4.15-1.42a2.5,2.5,0,0,0-.43-3.69c-1.76-1.16-5.3.24-6.77,1.41L377,403.71c.23-.37.47-.76.71-1.12.88-1.32,1.77-2.49,2.57-3.51.45-.58.88-1.09,1.28-1.57a16.63,16.63,0,0,0,5-.71,5.26,5.26,0,0,0,3-3.17,2.49,2.49,0,0,0-2.09-3.07c-2.09-.23-4.59,2.64-5.35,4.36-.07.15-.84,2.6-.8,2.6h.05c-.4.46-.82.94-1.27,1.49-.82,1-1.74,2.15-2.65,3.46a44.16,44.16,0,0,0-2.75,4.38,32.69,32.69,0,0,0-2.35,5.29s0,.05,0,.07c0-.62,0-2.35,0-2.48-.24-1.87-1.81-5.33-3.88-5.72a2.5,2.5,0,0,0-2.88,2.35,5.23,5.23,0,0,0,2,3.91c1.18,1.05,4.47,2.08,4.73,2.16a43.19,43.19,0,0,0-1.39,5.73c-.2,1.12-.37,2.27-.52,3.41,0-.53,0-1,0-1.07-.24-1.87-1.81-5.34-3.88-5.72a2.5,2.5,0,0,0-2.88,2.35c-.12,1.48,1,3,2,3.9a16.62,16.62,0,0,0,4.58,2.12c-.05.44-.11.88-.16,1.32-.26,2.11-.5,4.23-.8,6.29-.11.73-.24,1.44-.37,2.16,0-.48,0-.88,0-.94-.25-1.86-1.81-5.33-3.88-5.71a2.49,2.49,0,0,0-2.88,2.34A5.22,5.22,0,0,0,364.09,432.51Z" style="fill:#263238"></path><path d="M340.3,413.88c1.57.23,4.87-.73,5.14-.81a43.39,43.39,0,0,0,2,5.54c.45,1.06.95,2.1,1.45,3.14-.3-.44-.57-.83-.62-.88-1.23-1.43-4.45-3.45-6.39-2.63a2.49,2.49,0,0,0-1.1,3.55,5.2,5.2,0,0,0,3.82,2.15,16.09,16.09,0,0,0,5-.77l.59,1.2c1,1.9,1.92,3.8,2.81,5.69.31.66.6,1.33.88,2-.26-.39-.49-.72-.53-.77-1.24-1.42-4.45-3.45-6.39-2.63a2.5,2.5,0,0,0-1.11,3.55,5.22,5.22,0,0,0,3.83,2.15,15.71,15.71,0,0,0,4.85-.73c.28.7.55,1.39.78,2.07.15.47.33.91.45,1.39l.39,1.4c.22.9.45,1.83.63,2.72.14.61.26,1.2.38,1.79-.3-.67-.93-2-1-2.06-1-1.59-3.88-4.09-5.92-3.56a2.49,2.49,0,0,0-1.63,3.33,5,5,0,0,0,3.13,2.6h6.68l-.09-.44a26.17,26.17,0,0,0,2.88-1.36,11.84,11.84,0,0,0,2.49,1.8h1.95c.11-.74.23-1.64.23-1.73a9.75,9.75,0,0,0-1.3-4.72,3.39,3.39,0,0,0,0-.55,2.5,2.5,0,0,0-3.05-2.12c-2,.55-3.33,4.12-3.42,6,0,.12.06,1.33.12,2.09-.1-.44-.2-.88-.31-1.33-.21-.9-.45-1.79-.7-2.76-.14-.46-.28-.92-.43-1.39s-.33-.95-.49-1.43c-.4-1.1-.86-2.2-1.35-3.29a16.5,16.5,0,0,0,4.7-1.76c1.11-.86,2.3-2.26,2.29-3.75a2.5,2.5,0,0,0-2.7-2.55c-2.1.23-3.92,3.56-4.3,5.41,0,.11-.14,1.47-.2,2.21-.3-.65-.59-1.31-.92-2-.93-1.89-1.94-3.77-2.94-5.65l-.9-1.73c.28-.07,3.62-.84,4.87-1.8a5.22,5.22,0,0,0,2.29-3.75,2.49,2.49,0,0,0-2.7-2.55c-2.09.22-3.91,3.56-4.29,5.41,0,.14-.21,2.08-.23,2.58-.66-1.27-1.3-2.54-1.89-3.82a44.78,44.78,0,0,1-2.06-5.32c.13,0,3.62-.82,4.9-1.81a5.18,5.18,0,0,0,2.29-3.74,2.5,2.5,0,0,0-2.69-2.56c-2.1.23-3.92,3.57-4.3,5.41,0,.15-.22,2.25-.22,2.63,0-.11-.08-.21-.11-.32a32.51,32.51,0,0,1-1.07-5.61c-.12-1.05-.17-2.06-.2-3,.66-.08,3.7-.48,5-1.24a5.25,5.25,0,0,0,2.69-3.47,2.5,2.5,0,0,0-2.4-2.84c-2.11,0-4.29,3.12-4.87,4.91,0,.1-.24,1.12-.38,1.87,0-.44,0-.9,0-1.32,0-1.6.1-3.06.2-4.35.06-.74.13-1.4.21-2a16.71,16.71,0,0,0,3.8-3.37,5.21,5.21,0,0,0,.78-4.32,2.49,2.49,0,0,0-3.43-1.41c-1.88,1-2.37,4.74-2.06,6.6,0,.16.73,2.62.77,2.6l0,0c-.08.6-.16,1.24-.24,1.94-.12,1.29-.26,2.75-.29,4.35a41.53,41.53,0,0,0,.12,5.17,32.29,32.29,0,0,0,1,5.71.14.14,0,0,0,0,.06c-.33-.52-1.31-1.94-1.4-2-1.23-1.43-4.45-3.46-6.39-2.63a2.48,2.48,0,0,0-1.1,3.54C337.19,413,338.91,413.67,340.3,413.88Z" style="fill:#263238"></path><path d="M376.46,404s.68-2.46.7-2.62c.26-1.87-.34-5.62-2.23-6.54a2.5,2.5,0,0,0-3.4,1.5c-.51,1.4.14,3.12.9,4.3C373.33,402,376.46,404,376.46,404Z" style="fill:#263238"></path></g><g id="freepik--Line--inject-79"><line x1="14.53" y1="443.11" x2="477.78" y2="443.11" style="fill:#fff;stroke:#263238;stroke-linecap:round;stroke-linejoin:round"></line></g></svg>